HIERARCHY
ROOT Hips
{
  OFFSET 90.7885 88.945 -76.2838
  CHANNELS 6 Xposition Yposition Zposition Zrotation Xrotation Yrotation
  JOINT LeftUpLeg
  {
    OFFSET 8.64259 1.95398 -2.38835
    CHANNELS 3 Zrotation Xrotation Yrotation
    JOINT LeftLeg
    {
      OFFSET 43.7702 0 0
      CHANNELS 3 Zrotation Xrotation Yrotation
      JOINT LeftFoot
      {
        OFFSET 40.6238 0 0
        CHANNELS 3 Zrotation Xrotation Yrotation
        JOINT LeftToeBase
        {
          OFFSET 12.7242 0 0
          CHANNELS 3 Zrotation Xrotation Yrotation
          End Site
          {
            OFFSET 0 0 0
          }
        }
      }
    }
  }
  JOINT RightUpLeg
  {
    OFFSET -8.2249 1.95398 -2.59336
    CHANNELS 3 Zrotation Xrotation Yrotation
    JOINT RightLeg
    {
      OFFSET 43.5653 0 0
      CHANNELS 3 Zrotation Xrotation Yrotation
      JOINT RightFoot
      {
        OFFSET 40.6238 0 0
        CHANNELS 3 Zrotation Xrotation Yrotation
        JOINT RightToeBase
        {
          OFFSET 12.7242 0 0
          CHANNELS 3 Zrotation Xrotation Yrotation
          End Site
          {
            OFFSET 0 0 0
          }
        }
      }
    }
  }
  JOINT Spine
  {
    OFFSET 0.165834 0.87714 6.61349
    CHANNELS 3 Zrotation Xrotation Yrotation
    JOINT Spine1
    {
      OFFSET 7.38963 1.71661e-005 0
      CHANNELS 3 Zrotation Xrotation Yrotation
      JOINT Spine2
      {
        OFFSET 11.9445 1.14441e-005 0
        CHANNELS 3 Zrotation Xrotation Yrotation
        JOINT Spine3
        {
          OFFSET 14.7254 4.19617e-005 0
          CHANNELS 3 Zrotation Xrotation Yrotation
          JOINT Spine4
          {
            OFFSET 10.9679 0 0
            CHANNELS 3 Zrotation Xrotation Yrotation
            JOINT RightShoulder
            {
              OFFSET 2.46616 -1.6653 3.69651
              CHANNELS 3 Zrotation Xrotation Yrotation
              JOINT RightArm
              {
                OFFSET 13.0012 0 0
                CHANNELS 3 Zrotation Xrotation Yrotation
                JOINT RightForeArm
                {
                  OFFSET 28.7848 1.52588e-005 0
                  CHANNELS 3 Zrotation Xrotation Yrotation
                  JOINT RightHand
                  {
                    OFFSET 26.5688 1.52588e-005 0
                    CHANNELS 3 Zrotation Xrotation Yrotation
                    End Site
                    {
                      OFFSET 0 0 0
                    }
                  }
                }
              }
            }
            JOINT LeftShoulder
            {
              OFFSET 2.38034 -1.29275 -3.7523
              CHANNELS 3 Zrotation Xrotation Yrotation
              JOINT LeftArm
              {
                OFFSET 16.3182 6.10352e-005 0
                CHANNELS 3 Zrotation Xrotation Yrotation
                JOINT LeftForeArm
                {
                  OFFSET 27.0901 0 0
                  CHANNELS 3 Zrotation Xrotation Yrotation
                  JOINT LeftHand
                  {
                    OFFSET 24.5451 1.52588e-005 0
                    CHANNELS 3 Zrotation Xrotation Yrotation
                    End Site
                    {
                      OFFSET 0 0 0
                    }
                  }
                }
              }
            }
            JOINT Neck
            {
              OFFSET 5.0226 -0.0266342 0
              CHANNELS 3 Zrotation Xrotation Yrotation
              JOINT Head
              {
                OFFSET 6.69363 2.86102e-005 0
                CHANNELS 3 Zrotation Xrotation Yrotation
                End Site
                {
                  OFFSET 0 0 0
                }
              }
            }
          }
        }
      }
    }
  }
}
MOTION
Frames:	6
Frame Time:	0.0416667
-275.909 85.3261 256.353 95.3322 45.1469 100.082 -167.927 -29.8278 101.389 -11.3985 -2.59257 0.265177 86.8428 10.8411 -2.93246 40.0875 -1.6174 0.579011 172.761 32.96 105.917 -38.623 -18.9847 5.26455 64.7894 -1.9873 -0.919908 16.5152 -1.20897 4.51394 -1.47601 7.73554 -92.2173 11.3184 -3.96988 -4.02003 -0.352192 -4.14283 -3.84154 -22.8616 -2.57989 -5.02553 -2.84894 -2.57993 -5.02554 92.4508 -33.5499 -100.821 37.6352 3.35008 14.0563 5.18897 0.83547 0.00283566 -14.1736 0.810717 -12.2555 -89.4719 -57.6179 80.9784 -20.1242 13.7796 -19.6717 4.92033 7.7832 -3.58211 9.57057 0.847922 4.58355 -7.17556 6.70092 -2.2019 -6.61647 6.43255 10.8497 
-269.708 83.5512 250.012 96.9523 42.0567 100.467 -165.953 -26.9009 103.25 -27.0017 -1.18159 -0.169093 77.1315 7.1725 -1.88349 54.7199 -0.176728 -5.81079 173.581 32.2454 108.662 -51.3538 -19.8213 4.31993 74.8217 -7.34534 -2.75861 19.6412 -1.99514 5.65826 -1.04903 7.64992 -92.4967 11.4854 -3.25341 -4.64247 -0.189264 -3.45438 -4.49509 -22.6695 -1.71014 -5.40355 -2.65685 -1.71012 -5.40355 90.8437 -33.0636 -104.032 36.7482 1.71409 11.9579 6.59718 -0.0899473 -0.211305 -14.4685 0.837799 -12.8152 -89.9199 -60.7626 80.9291 -21.4717 20.3698 -15.4882 0.449738 -0.883188 0.250678 6.72088 0.303669 0.828904 -8.09439 6.95954 3.42179 -6.78632 6.37041 8.47985 
-264.748 82.8221 244.538 99.4222 41.8917 98.1006 -164.771 -15.4292 105.495 -53.2079 14.2656 2.26532 64.2943 2.54676 0.112652 32.5644 1.60069 -4.92707 174.167 27.442 107.553 -57.3065 -20.6006 3.59232 82.7217 -11.9268 -4.69396 18.0944 -3.07107 7.81443 -0.851939 7.77748 -92.4522 11.2387 -2.83617 -4.60359 -0.436781 -3.03583 -4.47461 -22.9141 -1.32367 -5.24141 -2.90149 -1.32366 -5.24141 91.1541 -31.9537 -103.802 35.4065 0.130798 7.46467 6.95785 -1.57719 -1.59711 -18.632 0.571862 -9.64874 -89.8407 -62.0449 81.2556 -21.7647 19.3498 -10.8327 0.535831 -2.07579 0.061469 4.56693 0.530261 5.70558 -6.0219 7.16005 8.20787 -6.62843 6.19156 5.78034 
-260.9 83.3382 240.279 99.3188 43.7841 96.8957 -167.924 2.76767 104.128 -82.4978 24.3778 7.01003 62.426 1.59458 0.781571 17.0104 2.8822 -1.33689 174.453 23.1264 106.024 -58.0008 -19.8796 3.01513 87.3059 -14.5686 -4.88382 16.6313 -2.64501 7.09267 -0.407388 7.76696 -92.1773 11.2861 -1.82441 -4.15422 -0.38995 -2.00534 -4.07009 -22.8729 -0.49302 -4.50972 -2.8603 -0.493017 -4.50974 91.3203 -30.6122 -103.921 35.6453 1.06079 3.17784 5.83714 -0.528706 -3.35495 -20.3006 0.720467 -9.79766 -88.436 -59.0837 82.6436 -21.3065 13.6272 -7.37544 3.67851 0.276981 -0.743018 5.83934 0.539272 4.43466 -2.73081 5.28158 8.28323 -6.25084 4.15215 3.94398 
-257.292 85.8174 235.726 99.4436 45.2509 93.0048 -172.693 19.1174 98.0484 -98.024 11.9424 7.26057 64.9971 2.64664 2.34466 10.7157 3.12286 -0.655717 174.263 16.5727 101.138 -53.7639 -19.535 2.16198 87.5843 -14.4171 -3.72782 19.399 -3.24718 8.08974 0.217367 7.84884 -91.5876 11.1613 -0.304881 -3.13028 -0.513336 -0.442273 -3.11387 -23.019 0.649515 -3.07734 -3.00638 0.649546 -3.07734 91.4571 -28.0643 -104.539 36.6204 1.73091 -0.142403 5.15021 0.953719 -3.63513 -22.5307 0.718434 -8.9316 -88.0196 -57.816 83.0135 -16.8364 10.3614 -9.55043 5.31597 4.28007 -1.31262 6.34508 0.721473 6.25279 -3.45898 1.79927 6.98033 -4.67009 0.985932 1.597 
-253.07 91.1423 230.556 103.194 45.5839 85.244 -174.437 28.0492 91.08 -97.5427 -0.0477463 6.08125 68.7913 4.33999 3.0366 3.85512 3.35827 0.329688 173.584 7.01478 94.9753 -46.4795 -23.3737 0.279738 75.219 -8.30479 -5.72819 29.1769 -5.09406 12.0769 0.841581 8.25165 -90.7895 10.3769 1.31506 -1.68486 -1.2945 1.23967 -1.74111 -23.83 1.7606 -1.21177 -3.81737 1.76061 -1.21178 90.3585 -29.1659 -106.362 34.7278 1.04589 -0.851311 5.56032 -2.90329 -5.46723 -26.4053 0.42506 -7.81056 -88.3599 -56.0737 82.2579 -14.6434 7.721 -11.2536 6.57421 4.60819 -2.13088 5.9879 0.560354 4.49338 -8.65947 -1.48975 0.651518 -1.98297 -1.54639 1.61866 
